<?xml version="1.0" encoding="utf-8"?>
<!-- Generator: Adobe Illustrator 23.0.6, SVG Export Plug-In . SVG Version: 6.00 Build 0)  -->
<svg version="1.1" id="레이어_1" xmlns="http://www.w3.org/2000/svg" xmlns:xlink="http://www.w3.org/1999/xlink" x="0px"
	 y="0px" viewBox="0 0 612 792" style="enable-background:new 0 0 612 792;" xml:space="preserve">
<style type="text/css">
	.st0{fill-rule:evenodd;clip-rule:evenodd;fill:#FFFFFF;}
	.st1{fill-rule:evenodd;clip-rule:evenodd;fill:#006694;}
	.st2{fill-rule:evenodd;clip-rule:evenodd;fill:#E69500;}
</style>
<g>
	<polygon class="st0" points="209,300 401.76,300 401.76,492.76 209,492.76 209,300 	"/>
	<path class="st1" d="M217.5,428.22h5.8v-22.98l9.06,20.03c1.03,2.41,2.5,3.3,5.35,3.3c2.86,0,4.24-0.89,5.31-3.3l9.01-20.03v22.98
		h5.84v-22.98c0-2.23-0.89-3.3-2.77-3.88c-4.42-1.34-7.36-0.18-8.7,2.81l-8.88,19.81l-8.57-19.81c-1.29-2.99-4.28-4.15-8.75-2.81
		c-1.83,0.58-2.72,1.65-2.72,3.88V428.22L217.5,428.22z"/>
	<path class="st1" d="M262.7,409.52h5.84v12.63c-0.04,0.71,0.22,2.32,3.39,2.36c1.65,0.04,12.58,0,12.67,0v-15.08h5.85
		c0,0,0,20.57,0,20.66c0,5.09-6.29,6.2-9.24,6.25h-18.38v-3.88c0.04,0,18.38,0,18.43,0c3.75-0.4,3.3-2.28,3.3-2.9v-1.52H272.2
		c-5.76-0.04-9.46-2.59-9.5-5.49C262.7,422.28,262.84,409.61,262.7,409.52L262.7,409.52z"/>
	<path class="st1" d="M388.08,394.89c-3.57-0.09-6.34,0.27-8.66,1.25c-0.67,0.27-1.74,0.27-1.83,1.12c0.36,0.36,0.4,0.94,0.71,1.43
		c0.54,0.89,1.47,2.1,2.32,2.72c0.94,0.71,1.87,1.43,2.86,2.05c1.74,1.07,3.7,1.7,5.4,2.77c0.98,0.62,1.96,1.43,2.94,2.1
		c0.49,0.36,0.8,0.94,1.43,1.16c0-0.04,0-0.09,0-0.13c-0.31-0.4-0.4-0.98-0.71-1.43c-0.45-0.45-0.89-0.85-1.34-1.29
		c-1.29-1.74-2.9-3.26-4.64-4.51c-1.43-0.98-4.55-2.32-5.13-3.97c0,0-0.04-0.04-0.09-0.09c0.98-0.09,2.14-0.45,3.08-0.71
		c1.52-0.4,2.9-0.31,4.46-0.71c0.71-0.18,1.43-0.4,2.14-0.62c0-0.13,0-0.27,0-0.4c-0.8-0.8-1.38-1.87-2.23-2.63
		c-2.28-1.96-4.77-3.88-7.36-5.49c-1.38-0.89-3.17-1.47-4.64-2.23c-0.54-0.27-1.43-0.4-1.74-0.85c-0.8-0.98-1.25-2.28-1.83-3.44
		c-1.29-2.45-2.54-5.18-3.66-7.76c-0.8-1.74-1.29-3.48-2.28-5.09c-4.6-7.58-9.59-12.18-17.27-16.69c-1.65-0.94-3.61-1.34-5.71-1.83
		c-1.12-0.04-2.23-0.13-3.35-0.18c-0.71-0.31-1.43-1.16-2.05-1.56c-2.54-1.61-9.1-5.09-10.98-0.49c-1.2,2.9,1.78,5.76,2.81,7.23
		c0.76,1.03,1.74,2.19,2.28,3.35c0.31,0.76,0.4,1.56,0.71,2.36c0.71,1.96,1.38,4.15,2.32,5.98c0.49,0.94,1.03,1.92,1.65,2.77
		c0.36,0.49,0.98,0.71,1.12,1.52c-0.62,0.89-0.67,2.23-1.03,3.35c-1.61,5.04-0.98,11.29,1.29,14.99c0.71,1.12,2.41,3.57,4.68,2.63
		c2.01-0.8,1.56-3.35,2.14-5.58c0.13-0.54,0.04-0.89,0.31-1.25c0,0.04,0,0.09,0,0.09c0.62,1.25,1.25,2.45,1.83,3.7
		c1.38,2.19,3.79,4.46,5.8,5.98c1.07,0.8,1.92,2.19,3.26,2.68c0-0.04,0-0.09,0-0.13c-0.04,0-0.04,0-0.09,0
		c-0.27-0.4-0.67-0.58-1.03-0.89c-0.8-0.8-1.7-1.78-2.32-2.68c-1.87-2.5-3.52-5.26-5-8.12c-0.71-1.38-1.34-2.9-1.92-4.28
		c-0.27-0.54-0.27-1.34-0.71-1.61c-0.67,0.98-1.65,1.83-2.14,3.03c-0.85,1.92-0.94,4.28-1.25,6.74c-0.18,0.04-0.09,0-0.18,0.09
		c-1.43-0.36-1.92-1.83-2.45-3.08c-1.34-3.17-1.56-8.25-0.4-11.91c0.31-0.94,1.65-3.88,1.12-4.77c-0.27-0.85-1.16-1.34-1.65-2.01
		c-0.58-0.85-1.2-1.92-1.61-2.86c-1.07-2.5-1.61-5.26-2.77-7.76c-0.54-1.16-1.47-2.36-2.23-3.44c-0.85-1.2-1.78-2.05-2.45-3.48
		c-0.22-0.49-0.54-1.29-0.18-1.83c0.09-0.36,0.27-0.49,0.62-0.58c0.58-0.49,2.23,0.13,2.81,0.4c1.65,0.67,3.03,1.29,4.42,2.23
		c0.62,0.45,1.29,1.29,2.1,1.52c0.31,0,0.62,0,0.94,0c1.43,0.31,3.03,0.09,4.37,0.49c2.36,0.76,4.51,1.87,6.43,3.08
		c5.84,3.7,10.66,8.97,13.92,15.26c0.54,1.03,0.76,1.96,1.25,3.03c0.94,2.19,2.1,4.42,3.03,6.56c0.94,2.1,1.83,4.24,3.17,5.98
		c0.67,0.94,3.35,1.43,4.55,1.92c0.89,0.4,2.28,0.76,3.08,1.25c1.52,0.94,3.03,2.01,4.46,3.03
		C385.71,392.88,387.94,393.99,388.08,394.89L388.08,394.89z"/>
	<path class="st1" d="M342.57,356.11c-0.76,0-1.29,0.09-1.83,0.22c0,0,0,0.04,0,0.09c0.04,0,0.04,0,0.09,0
		c0.36,0.71,0.98,1.2,1.43,1.83c0.36,0.71,0.67,1.43,1.03,2.14c0.04-0.04,0.09-0.09,0.09-0.09c0.62-0.45,0.94-1.16,0.94-2.23
		c-0.27-0.31-0.31-0.62-0.54-0.94C343.5,356.69,342.92,356.47,342.57,356.11L342.57,356.11z"/>
	<path class="st2" d="M294.92,428.22h16.78c1.96,0,3.84-0.4,5.35-1.12c2.54-1.16,3.75-2.72,3.75-4.77v-4.28
		c0-1.65-1.38-3.21-4.15-4.28c-1.43-0.54-3.21-0.85-4.95-0.85h-7.05c-2.36,0-3.48-0.71-3.79-2.28c-0.04-0.18-0.04-0.36-0.04-0.54
		v-2.63c0-0.13,0-0.31,0.04-0.49c0.31-1.2,0.94-1.52,2.99-1.74c0.18,0,0.4,0,0.54,0h16.64v-3.88h-16.33c-2.36,0-3.61,0.13-4.73,0.49
		c-3.44,1.07-4.95,2.77-4.95,5.76v3.39c0,2.63,2.94,4.86,7.94,5.4c0.54,0.04,1.12,0.04,1.7,0.04h6.02c0.22,0,0.45,0,0.62,0.04
		c1.83,0.18,2.63,0.49,3.17,1.16c0.36,0.36,0.45,0.67,0.45,1.07v3.39c0,0.4-0.27,0.94-0.8,1.38s-1.38,0.76-2.5,0.8
		c-0.22,0-0.36,0.04-0.58,0.04h-16.11V428.22L294.92,428.22z"/>
	<path class="st2" d="M357.11,421.48c0,3.97,2.99,6.2,8.97,6.65c0.58,0.04,1.12,0.09,1.7,0.09h15.17v-3.88h-15.3
		c-3.39,0-4.68-0.85-4.68-2.9v-20.08h-5.84V421.48L357.11,421.48z"/>
	<path class="st2" d="M324.5,421.66v-13.83c0-3.52,2.5-5.67,7.36-6.34c0.54-0.04,1.07-0.09,1.56-0.09h11.07
		c0.58,0,1.07,0.04,1.65,0.09c4.86,0.67,7.32,2.81,7.32,6.34v13.83c0,2.86-1.03,4.37-3.44,5.4l5.71,5.18h-6.74l-4.64-4.19
		l-4.68,0.27h-6.25c-1.03,0-2.19-0.13-3.39-0.45C326.33,426.83,324.5,424.87,324.5,421.66L324.5,421.66z M330.79,421.34
		c0,0.18,0.09,0.36,0.13,0.58c0.31,1.61,1.83,2.5,4.15,2.5h5.26l-4.82-4.37h6.74l4.24,3.84c0.8-0.45,1.29-1.07,1.47-1.87
		c0.04-0.18,0.04-0.4,0.04-0.58v-13.25c0-0.18,0-0.36-0.04-0.54c-0.31-1.52-1.83-2.36-4.1-2.36h-8.79c-2.59,0-4.28,1.12-4.28,2.9
		V421.34L330.79,421.34z"/>
	<path class="st2" d="M385.62,428.26h0.85V425h1.12v-0.67h-3.12V425h1.16V428.26L385.62,428.26z M392.09,428.26h0.8v-3.93h-1.2
		l-0.98,2.68l-1.07-2.68h-1.16v3.93h0.76v-2.99h0.04l1.12,2.99h0.58l1.12-2.99l0,0V428.26L392.09,428.26z"/>
</g>
</svg>
