<?xml version="1.0" encoding="utf-8"?>
<!-- Generator: Adobe Illustrator 23.0.6, SVG Export Plug-In . SVG Version: 6.00 Build 0)  -->
<svg version="1.1" id="레이어_1" xmlns="http://www.w3.org/2000/svg" xmlns:xlink="http://www.w3.org/1999/xlink" x="0px"
	 y="0px" viewBox="0 0 612 792" style="enable-background:new 0 0 612 792;" xml:space="preserve">
<style type="text/css">
	.st0{fill-rule:evenodd;clip-rule:evenodd;fill:#FFFFFF;}
	.st1{fill:#E60012;}
</style>
<g>
	<polygon class="st0" points="209,300 401.76,300 401.76,492.76 209,492.76 209,300 	"/>
	<path class="st1" d="M293.09,399.36h10.93l-5.77-9.31l-10.6,16.82l-4.83,0l12.9-20.2c0.55-0.82,1.49-1.32,2.52-1.32
		c1.02,0,1.95,0.48,2.5,1.28l12.95,20.24l-4.83,0l-2.27-3.76h-11.08L293.09,399.36L293.09,399.36z M343.24,403.12v-17.55h-4.1v19.26
		c0,0.53,0.22,1.04,0.6,1.42c0.4,0.4,0.93,0.62,1.5,0.62h18.68l2.41-3.76H343.24L343.24,403.12z M275.47,399.97
		c3.98,0,7.2-3.23,7.2-7.2c0-3.98-3.23-7.2-7.2-7.2h-17.93v21.3h4.09v-17.55h13.55c1.91,0,3.45,1.54,3.45,3.45
		c0,1.9-1.54,3.45-3.45,3.45l-11.54,0l12.23,10.65h5.95l-8.23-6.9L275.47,399.97L275.47,399.97z M232.33,406.87
		c-5.88,0-10.65-4.77-10.65-10.65c0-5.88,4.77-10.65,10.65-10.65h12.38c5.88,0,10.65,4.77,10.65,10.65
		c0,5.89-4.77,10.65-10.65,10.65L232.33,406.87L232.33,406.87z M244.43,403.12c3.81,0,6.9-3.09,6.9-6.9c0-3.81-3.09-6.9-6.9-6.9
		l-11.83,0c-3.81,0-6.9,3.09-6.9,6.9c0,3.81,3.09,6.9,6.9,6.9H244.43L244.43,403.12z M322.23,406.87c-5.88,0-10.65-4.77-10.65-10.65
		c0-5.88,4.77-10.65,10.65-10.65h14.71l-2.41,3.76l-12.03,0c-3.81,0-6.9,3.09-6.9,6.9c0,3.81,3.09,6.9,6.9,6.9h14.77l-2.41,3.75
		H322.23L322.23,406.87z M372.34,403.12c-3.15,0-5.82-2.12-6.63-5.01h17.51l2.41-3.76l-19.93,0c0.81-2.9,3.48-5.02,6.64-5.02
		l12.02,0l2.42-3.76h-14.72c-5.88,0-10.65,4.77-10.65,10.65c0,5.88,4.77,10.65,10.65,10.65h12.64l2.41-3.75H372.34L372.34,403.12z"
		/>
	<path class="st1" d="M388.97,387.84c0-1.04,0.84-1.88,1.88-1.88c1.04,0,1.88,0.84,1.88,1.88c0,1.04-0.84,1.89-1.88,1.89
		C389.81,389.72,388.97,388.88,388.97,387.84L388.97,387.84z M390.85,390.24c1.32,0,2.4-1.07,2.4-2.39c0-1.32-1.07-2.39-2.4-2.39
		c-1.32,0-2.39,1.07-2.39,2.39C388.46,389.17,389.53,390.24,390.85,390.24L390.85,390.24z M390.63,386.42c0.37,0,0.52,0,0.7,0.07
		c0.47,0.16,0.52,0.59,0.52,0.75c0,0.03-0.01,0.12-0.03,0.22c-0.03,0.1-0.09,0.31-0.33,0.46c-0.03,0.02-0.04,0.03-0.12,0.06
		l0.62,1.12h-0.6l-0.55-1.03h-0.36v1.03h-0.53v-2.68H390.63L390.63,386.42z M390.82,387.64c0.16,0,0.34-0.02,0.45-0.17
		c0.04-0.07,0.06-0.14,0.06-0.23c0-0.15-0.08-0.26-0.2-0.33c-0.12-0.05-0.24-0.05-0.49-0.05h-0.15v0.77H390.82L390.82,387.64z"/>
</g>
</svg>
